<mxfile host="app.diagrams.net" modified="2023-01-21T00:04:04.570Z" agent="5.0 (Windows NT 10.0; Win64; x64) AppleWebKit/537.36 (KHTML, like Gecko) Chrome/109.0.0.0 Safari/537.36" etag="ggX9l6EEc_Se10xNfb1y" version="20.8.10" type="github">
  <diagram id="C5RBs43oDa-KdzZeNtuy" name="Page-1">
    <mxGraphModel dx="1434" dy="764" grid="1" gridSize="10" guides="1" tooltips="1" connect="1" arrows="1" fold="1" page="1" pageScale="1" pageWidth="827" pageHeight="1169" math="0" shadow="0">
      <root>
        <mxCell id="WIyWlLk6GJQsqaUBKTNV-0" />
        <mxCell id="WIyWlLk6GJQsqaUBKTNV-1" parent="WIyWlLk6GJQsqaUBKTNV-0" />
        <mxCell id="6unsaEwbxLHlzGFuifC7-3" value="" style="edgeStyle=orthogonalEdgeStyle;rounded=0;orthogonalLoop=1;jettySize=auto;html=1;" edge="1" parent="WIyWlLk6GJQsqaUBKTNV-1" source="6unsaEwbxLHlzGFuifC7-0" target="6unsaEwbxLHlzGFuifC7-2">
          <mxGeometry relative="1" as="geometry" />
        </mxCell>
        <mxCell id="6unsaEwbxLHlzGFuifC7-0" value="Start" style="ellipse;whiteSpace=wrap;html=1;" vertex="1" parent="WIyWlLk6GJQsqaUBKTNV-1">
          <mxGeometry x="100" y="100" width="100" height="80" as="geometry" />
        </mxCell>
        <mxCell id="6unsaEwbxLHlzGFuifC7-1" value="" style="endArrow=classic;html=1;rounded=0;" edge="1" parent="WIyWlLk6GJQsqaUBKTNV-1">
          <mxGeometry width="50" height="50" relative="1" as="geometry">
            <mxPoint x="200" y="140" as="sourcePoint" />
            <mxPoint x="240" y="140" as="targetPoint" />
          </mxGeometry>
        </mxCell>
        <mxCell id="6unsaEwbxLHlzGFuifC7-2" value="Get Bread" style="ellipse;whiteSpace=wrap;html=1;" vertex="1" parent="WIyWlLk6GJQsqaUBKTNV-1">
          <mxGeometry x="240" y="100" width="100" height="80" as="geometry" />
        </mxCell>
        <mxCell id="6unsaEwbxLHlzGFuifC7-4" value="" style="endArrow=classic;html=1;rounded=0;" edge="1" parent="WIyWlLk6GJQsqaUBKTNV-1">
          <mxGeometry width="50" height="50" relative="1" as="geometry">
            <mxPoint x="340" y="140" as="sourcePoint" />
            <mxPoint x="380" y="140" as="targetPoint" />
          </mxGeometry>
        </mxCell>
        <mxCell id="6unsaEwbxLHlzGFuifC7-5" value="Add peanut butter" style="ellipse;whiteSpace=wrap;html=1;" vertex="1" parent="WIyWlLk6GJQsqaUBKTNV-1">
          <mxGeometry x="380" y="100" width="100" height="80" as="geometry" />
        </mxCell>
        <mxCell id="6unsaEwbxLHlzGFuifC7-6" value="" style="endArrow=classic;html=1;rounded=0;" edge="1" parent="WIyWlLk6GJQsqaUBKTNV-1">
          <mxGeometry width="50" height="50" relative="1" as="geometry">
            <mxPoint x="470" y="140" as="sourcePoint" />
            <mxPoint x="510" y="140" as="targetPoint" />
          </mxGeometry>
        </mxCell>
        <mxCell id="6unsaEwbxLHlzGFuifC7-7" value="Add Jelly" style="ellipse;whiteSpace=wrap;html=1;" vertex="1" parent="WIyWlLk6GJQsqaUBKTNV-1">
          <mxGeometry x="510" y="100" width="100" height="80" as="geometry" />
        </mxCell>
        <mxCell id="6unsaEwbxLHlzGFuifC7-8" value="" style="endArrow=classic;html=1;rounded=0;" edge="1" parent="WIyWlLk6GJQsqaUBKTNV-1">
          <mxGeometry width="50" height="50" relative="1" as="geometry">
            <mxPoint x="600" y="140" as="sourcePoint" />
            <mxPoint x="640" y="140" as="targetPoint" />
          </mxGeometry>
        </mxCell>
        <mxCell id="6unsaEwbxLHlzGFuifC7-9" value="Combine two slices" style="ellipse;whiteSpace=wrap;html=1;" vertex="1" parent="WIyWlLk6GJQsqaUBKTNV-1">
          <mxGeometry x="640" y="100" width="100" height="80" as="geometry" />
        </mxCell>
        <mxCell id="6unsaEwbxLHlzGFuifC7-10" value="" style="endArrow=classic;html=1;rounded=0;" edge="1" parent="WIyWlLk6GJQsqaUBKTNV-1">
          <mxGeometry width="50" height="50" relative="1" as="geometry">
            <mxPoint x="730" y="140" as="sourcePoint" />
            <mxPoint x="770" y="140" as="targetPoint" />
          </mxGeometry>
        </mxCell>
        <mxCell id="6unsaEwbxLHlzGFuifC7-11" value="End" style="ellipse;whiteSpace=wrap;html=1;" vertex="1" parent="WIyWlLk6GJQsqaUBKTNV-1">
          <mxGeometry x="770" y="100" width="100" height="80" as="geometry" />
        </mxCell>
        <mxCell id="6unsaEwbxLHlzGFuifC7-13" value="Start" style="ellipse;whiteSpace=wrap;html=1;" vertex="1" parent="WIyWlLk6GJQsqaUBKTNV-1">
          <mxGeometry x="110" y="240" width="100" height="80" as="geometry" />
        </mxCell>
        <mxCell id="6unsaEwbxLHlzGFuifC7-14" value="" style="endArrow=classic;html=1;rounded=0;" edge="1" parent="WIyWlLk6GJQsqaUBKTNV-1">
          <mxGeometry width="50" height="50" relative="1" as="geometry">
            <mxPoint x="210" y="280" as="sourcePoint" />
            <mxPoint x="250" y="280" as="targetPoint" />
          </mxGeometry>
        </mxCell>
        <mxCell id="6unsaEwbxLHlzGFuifC7-15" value="If Sunset" style="ellipse;whiteSpace=wrap;html=1;" vertex="1" parent="WIyWlLk6GJQsqaUBKTNV-1">
          <mxGeometry x="250" y="240" width="100" height="80" as="geometry" />
        </mxCell>
        <mxCell id="6unsaEwbxLHlzGFuifC7-16" value="" style="endArrow=classic;html=1;rounded=0;" edge="1" parent="WIyWlLk6GJQsqaUBKTNV-1">
          <mxGeometry width="50" height="50" relative="1" as="geometry">
            <mxPoint x="350" y="280" as="sourcePoint" />
            <mxPoint x="390" y="280" as="targetPoint" />
          </mxGeometry>
        </mxCell>
        <mxCell id="6unsaEwbxLHlzGFuifC7-17" value="Turn on the lamp" style="ellipse;whiteSpace=wrap;html=1;" vertex="1" parent="WIyWlLk6GJQsqaUBKTNV-1">
          <mxGeometry x="390" y="240" width="100" height="80" as="geometry" />
        </mxCell>
        <mxCell id="6unsaEwbxLHlzGFuifC7-18" value="" style="endArrow=classic;html=1;rounded=0;entryX=0.5;entryY=0;entryDx=0;entryDy=0;" edge="1" parent="WIyWlLk6GJQsqaUBKTNV-1" target="6unsaEwbxLHlzGFuifC7-19">
          <mxGeometry width="50" height="50" relative="1" as="geometry">
            <mxPoint x="295" y="320" as="sourcePoint" />
            <mxPoint x="305" y="360" as="targetPoint" />
          </mxGeometry>
        </mxCell>
        <mxCell id="6unsaEwbxLHlzGFuifC7-19" value="If sunrise" style="ellipse;whiteSpace=wrap;html=1;" vertex="1" parent="WIyWlLk6GJQsqaUBKTNV-1">
          <mxGeometry x="250" y="360" width="100" height="80" as="geometry" />
        </mxCell>
        <mxCell id="6unsaEwbxLHlzGFuifC7-20" value="" style="endArrow=classic;html=1;rounded=0;" edge="1" parent="WIyWlLk6GJQsqaUBKTNV-1">
          <mxGeometry width="50" height="50" relative="1" as="geometry">
            <mxPoint x="350" y="400" as="sourcePoint" />
            <mxPoint x="390" y="400" as="targetPoint" />
          </mxGeometry>
        </mxCell>
        <mxCell id="6unsaEwbxLHlzGFuifC7-21" value="Turn off lamp" style="ellipse;whiteSpace=wrap;html=1;" vertex="1" parent="WIyWlLk6GJQsqaUBKTNV-1">
          <mxGeometry x="390" y="360" width="100" height="80" as="geometry" />
        </mxCell>
        <mxCell id="6unsaEwbxLHlzGFuifC7-22" value="" style="endArrow=classic;html=1;rounded=0;exitX=1;exitY=0.5;exitDx=0;exitDy=0;" edge="1" parent="WIyWlLk6GJQsqaUBKTNV-1" source="6unsaEwbxLHlzGFuifC7-17">
          <mxGeometry width="50" height="50" relative="1" as="geometry">
            <mxPoint x="590" y="340" as="sourcePoint" />
            <mxPoint x="630" y="340" as="targetPoint" />
          </mxGeometry>
        </mxCell>
        <mxCell id="6unsaEwbxLHlzGFuifC7-23" value="End" style="ellipse;whiteSpace=wrap;html=1;" vertex="1" parent="WIyWlLk6GJQsqaUBKTNV-1">
          <mxGeometry x="600" y="300" width="100" height="80" as="geometry" />
        </mxCell>
        <mxCell id="6unsaEwbxLHlzGFuifC7-24" value="" style="endArrow=classic;html=1;rounded=0;entryX=0;entryY=0.5;entryDx=0;entryDy=0;" edge="1" parent="WIyWlLk6GJQsqaUBKTNV-1" target="6unsaEwbxLHlzGFuifC7-23">
          <mxGeometry width="50" height="50" relative="1" as="geometry">
            <mxPoint x="490" y="400" as="sourcePoint" />
            <mxPoint x="540" y="350" as="targetPoint" />
          </mxGeometry>
        </mxCell>
        <mxCell id="6unsaEwbxLHlzGFuifC7-25" value="No" style="text;strokeColor=none;align=center;fillColor=none;html=1;verticalAlign=middle;whiteSpace=wrap;rounded=0;" vertex="1" parent="WIyWlLk6GJQsqaUBKTNV-1">
          <mxGeometry x="230" y="325" width="60" height="30" as="geometry" />
        </mxCell>
        <mxCell id="6unsaEwbxLHlzGFuifC7-26" value="Yes" style="text;strokeColor=none;align=center;fillColor=none;html=1;verticalAlign=middle;whiteSpace=wrap;rounded=0;" vertex="1" parent="WIyWlLk6GJQsqaUBKTNV-1">
          <mxGeometry x="340" y="250" width="60" height="30" as="geometry" />
        </mxCell>
        <mxCell id="6unsaEwbxLHlzGFuifC7-28" value="Start" style="ellipse;whiteSpace=wrap;html=1;" vertex="1" parent="WIyWlLk6GJQsqaUBKTNV-1">
          <mxGeometry x="120" y="480" width="100" height="80" as="geometry" />
        </mxCell>
        <mxCell id="6unsaEwbxLHlzGFuifC7-29" value="" style="endArrow=classic;html=1;rounded=0;" edge="1" parent="WIyWlLk6GJQsqaUBKTNV-1">
          <mxGeometry width="50" height="50" relative="1" as="geometry">
            <mxPoint x="220" y="520" as="sourcePoint" />
            <mxPoint x="260" y="520" as="targetPoint" />
          </mxGeometry>
        </mxCell>
        <mxCell id="6unsaEwbxLHlzGFuifC7-30" value="If you see no cars" style="ellipse;whiteSpace=wrap;html=1;" vertex="1" parent="WIyWlLk6GJQsqaUBKTNV-1">
          <mxGeometry x="260" y="480" width="100" height="80" as="geometry" />
        </mxCell>
        <mxCell id="6unsaEwbxLHlzGFuifC7-31" value="" style="endArrow=classic;html=1;rounded=0;exitX=1;exitY=0.5;exitDx=0;exitDy=0;" edge="1" parent="WIyWlLk6GJQsqaUBKTNV-1" source="6unsaEwbxLHlzGFuifC7-30">
          <mxGeometry width="50" height="50" relative="1" as="geometry">
            <mxPoint x="370" y="520" as="sourcePoint" />
            <mxPoint x="410" y="520" as="targetPoint" />
          </mxGeometry>
        </mxCell>
        <mxCell id="6unsaEwbxLHlzGFuifC7-32" value="Go" style="ellipse;whiteSpace=wrap;html=1;" vertex="1" parent="WIyWlLk6GJQsqaUBKTNV-1">
          <mxGeometry x="410" y="480" width="100" height="80" as="geometry" />
        </mxCell>
        <mxCell id="6unsaEwbxLHlzGFuifC7-33" value="" style="endArrow=classic;html=1;rounded=0;entryX=0.5;entryY=0;entryDx=0;entryDy=0;exitX=0.5;exitY=1;exitDx=0;exitDy=0;" edge="1" parent="WIyWlLk6GJQsqaUBKTNV-1" source="6unsaEwbxLHlzGFuifC7-30" target="6unsaEwbxLHlzGFuifC7-34">
          <mxGeometry width="50" height="50" relative="1" as="geometry">
            <mxPoint x="230" y="640" as="sourcePoint" />
            <mxPoint x="270" y="640" as="targetPoint" />
          </mxGeometry>
        </mxCell>
        <mxCell id="6unsaEwbxLHlzGFuifC7-34" value="If you have right of way" style="ellipse;whiteSpace=wrap;html=1;" vertex="1" parent="WIyWlLk6GJQsqaUBKTNV-1">
          <mxGeometry x="260" y="600" width="100" height="80" as="geometry" />
        </mxCell>
        <mxCell id="6unsaEwbxLHlzGFuifC7-35" value="" style="endArrow=classic;html=1;rounded=0;entryX=0.5;entryY=0;entryDx=0;entryDy=0;exitX=0.5;exitY=1;exitDx=0;exitDy=0;" edge="1" parent="WIyWlLk6GJQsqaUBKTNV-1" source="6unsaEwbxLHlzGFuifC7-34" target="6unsaEwbxLHlzGFuifC7-36">
          <mxGeometry width="50" height="50" relative="1" as="geometry">
            <mxPoint x="220" y="750" as="sourcePoint" />
            <mxPoint x="260" y="750" as="targetPoint" />
          </mxGeometry>
        </mxCell>
        <mxCell id="6unsaEwbxLHlzGFuifC7-36" value="Wait until you have right of way" style="ellipse;whiteSpace=wrap;html=1;" vertex="1" parent="WIyWlLk6GJQsqaUBKTNV-1">
          <mxGeometry x="260" y="710" width="100" height="80" as="geometry" />
        </mxCell>
        <mxCell id="6unsaEwbxLHlzGFuifC7-39" value="" style="edgeStyle=none;orthogonalLoop=1;jettySize=auto;html=1;rounded=0;exitX=1;exitY=0.5;exitDx=0;exitDy=0;entryX=0.5;entryY=1;entryDx=0;entryDy=0;" edge="1" parent="WIyWlLk6GJQsqaUBKTNV-1" source="6unsaEwbxLHlzGFuifC7-36" target="6unsaEwbxLHlzGFuifC7-32">
          <mxGeometry width="80" relative="1" as="geometry">
            <mxPoint x="390" y="740" as="sourcePoint" />
            <mxPoint x="470" y="740" as="targetPoint" />
            <Array as="points" />
          </mxGeometry>
        </mxCell>
        <mxCell id="6unsaEwbxLHlzGFuifC7-40" value="" style="edgeStyle=none;orthogonalLoop=1;jettySize=auto;html=1;rounded=0;exitX=1;exitY=0.5;exitDx=0;exitDy=0;" edge="1" parent="WIyWlLk6GJQsqaUBKTNV-1" source="6unsaEwbxLHlzGFuifC7-34" target="6unsaEwbxLHlzGFuifC7-32">
          <mxGeometry width="80" relative="1" as="geometry">
            <mxPoint x="560" y="700" as="sourcePoint" />
            <mxPoint x="640" y="700" as="targetPoint" />
            <Array as="points" />
          </mxGeometry>
        </mxCell>
        <mxCell id="6unsaEwbxLHlzGFuifC7-41" value="" style="endArrow=classic;html=1;rounded=0;entryX=0;entryY=0.5;entryDx=0;entryDy=0;" edge="1" parent="WIyWlLk6GJQsqaUBKTNV-1" target="6unsaEwbxLHlzGFuifC7-42">
          <mxGeometry width="50" height="50" relative="1" as="geometry">
            <mxPoint x="510" y="520" as="sourcePoint" />
            <mxPoint x="540" y="520" as="targetPoint" />
          </mxGeometry>
        </mxCell>
        <mxCell id="6unsaEwbxLHlzGFuifC7-42" value="End" style="ellipse;whiteSpace=wrap;html=1;" vertex="1" parent="WIyWlLk6GJQsqaUBKTNV-1">
          <mxGeometry x="551" y="480" width="100" height="80" as="geometry" />
        </mxCell>
        <mxCell id="6unsaEwbxLHlzGFuifC7-45" value="Yes" style="text;strokeColor=none;align=center;fillColor=none;html=1;verticalAlign=middle;whiteSpace=wrap;rounded=0;" vertex="1" parent="WIyWlLk6GJQsqaUBKTNV-1">
          <mxGeometry x="353.5" y="490" width="60" height="30" as="geometry" />
        </mxCell>
        <mxCell id="6unsaEwbxLHlzGFuifC7-48" value="No" style="text;strokeColor=none;align=center;fillColor=none;html=1;verticalAlign=middle;whiteSpace=wrap;rounded=0;" vertex="1" parent="WIyWlLk6GJQsqaUBKTNV-1">
          <mxGeometry x="250" y="570" width="60" height="30" as="geometry" />
        </mxCell>
        <mxCell id="6unsaEwbxLHlzGFuifC7-49" value="No" style="text;strokeColor=none;align=center;fillColor=none;html=1;verticalAlign=middle;whiteSpace=wrap;rounded=0;" vertex="1" parent="WIyWlLk6GJQsqaUBKTNV-1">
          <mxGeometry x="240" y="680" width="60" height="30" as="geometry" />
        </mxCell>
        <mxCell id="6unsaEwbxLHlzGFuifC7-51" value="Yes" style="text;strokeColor=none;align=center;fillColor=none;html=1;verticalAlign=middle;whiteSpace=wrap;rounded=0;" vertex="1" parent="WIyWlLk6GJQsqaUBKTNV-1">
          <mxGeometry x="354" y="570" width="60" height="30" as="geometry" />
        </mxCell>
        <mxCell id="6unsaEwbxLHlzGFuifC7-53" value="Start" style="ellipse;whiteSpace=wrap;html=1;" vertex="1" parent="WIyWlLk6GJQsqaUBKTNV-1">
          <mxGeometry x="130" y="820" width="100" height="80" as="geometry" />
        </mxCell>
        <mxCell id="6unsaEwbxLHlzGFuifC7-56" value="" style="endArrow=classic;html=1;rounded=0;" edge="1" parent="WIyWlLk6GJQsqaUBKTNV-1">
          <mxGeometry width="50" height="50" relative="1" as="geometry">
            <mxPoint x="230" y="860" as="sourcePoint" />
            <mxPoint x="270" y="860" as="targetPoint" />
          </mxGeometry>
        </mxCell>
        <mxCell id="6unsaEwbxLHlzGFuifC7-57" value="If light green" style="ellipse;whiteSpace=wrap;html=1;" vertex="1" parent="WIyWlLk6GJQsqaUBKTNV-1">
          <mxGeometry x="270" y="820" width="100" height="80" as="geometry" />
        </mxCell>
        <mxCell id="6unsaEwbxLHlzGFuifC7-58" value="" style="endArrow=classic;html=1;rounded=0;" edge="1" parent="WIyWlLk6GJQsqaUBKTNV-1">
          <mxGeometry width="50" height="50" relative="1" as="geometry">
            <mxPoint x="370" y="860" as="sourcePoint" />
            <mxPoint x="410" y="860" as="targetPoint" />
          </mxGeometry>
        </mxCell>
        <mxCell id="6unsaEwbxLHlzGFuifC7-59" value="Go" style="ellipse;whiteSpace=wrap;html=1;" vertex="1" parent="WIyWlLk6GJQsqaUBKTNV-1">
          <mxGeometry x="410" y="820" width="100" height="80" as="geometry" />
        </mxCell>
        <mxCell id="6unsaEwbxLHlzGFuifC7-60" value="" style="endArrow=classic;html=1;rounded=0;entryX=0.5;entryY=0;entryDx=0;entryDy=0;exitX=0.5;exitY=1;exitDx=0;exitDy=0;" edge="1" parent="WIyWlLk6GJQsqaUBKTNV-1" source="6unsaEwbxLHlzGFuifC7-57" target="6unsaEwbxLHlzGFuifC7-61">
          <mxGeometry width="50" height="50" relative="1" as="geometry">
            <mxPoint x="230" y="970" as="sourcePoint" />
            <mxPoint x="270" y="970" as="targetPoint" />
          </mxGeometry>
        </mxCell>
        <mxCell id="6unsaEwbxLHlzGFuifC7-61" value="Wait until green" style="ellipse;whiteSpace=wrap;html=1;" vertex="1" parent="WIyWlLk6GJQsqaUBKTNV-1">
          <mxGeometry x="270" y="930" width="100" height="80" as="geometry" />
        </mxCell>
        <mxCell id="6unsaEwbxLHlzGFuifC7-62" value="No" style="text;strokeColor=none;align=center;fillColor=none;html=1;verticalAlign=middle;whiteSpace=wrap;rounded=0;" vertex="1" parent="WIyWlLk6GJQsqaUBKTNV-1">
          <mxGeometry x="250" y="900" width="60" height="30" as="geometry" />
        </mxCell>
        <mxCell id="6unsaEwbxLHlzGFuifC7-63" value="" style="edgeStyle=none;orthogonalLoop=1;jettySize=auto;html=1;rounded=0;exitX=1;exitY=0.5;exitDx=0;exitDy=0;entryX=0.5;entryY=1;entryDx=0;entryDy=0;" edge="1" parent="WIyWlLk6GJQsqaUBKTNV-1" source="6unsaEwbxLHlzGFuifC7-61" target="6unsaEwbxLHlzGFuifC7-59">
          <mxGeometry width="80" relative="1" as="geometry">
            <mxPoint x="420" y="970" as="sourcePoint" />
            <mxPoint x="500" y="970" as="targetPoint" />
            <Array as="points" />
          </mxGeometry>
        </mxCell>
        <mxCell id="6unsaEwbxLHlzGFuifC7-64" value="" style="endArrow=classic;html=1;rounded=0;" edge="1" parent="WIyWlLk6GJQsqaUBKTNV-1">
          <mxGeometry width="50" height="50" relative="1" as="geometry">
            <mxPoint x="510" y="860" as="sourcePoint" />
            <mxPoint x="550" y="860" as="targetPoint" />
          </mxGeometry>
        </mxCell>
        <mxCell id="6unsaEwbxLHlzGFuifC7-65" value="End" style="ellipse;whiteSpace=wrap;html=1;" vertex="1" parent="WIyWlLk6GJQsqaUBKTNV-1">
          <mxGeometry x="550" y="820" width="100" height="80" as="geometry" />
        </mxCell>
        <mxCell id="6unsaEwbxLHlzGFuifC7-67" value="Start" style="ellipse;whiteSpace=wrap;html=1;" vertex="1" parent="WIyWlLk6GJQsqaUBKTNV-1">
          <mxGeometry x="160" y="1040" width="100" height="80" as="geometry" />
        </mxCell>
        <mxCell id="6unsaEwbxLHlzGFuifC7-68" value="" style="endArrow=classic;html=1;rounded=0;" edge="1" parent="WIyWlLk6GJQsqaUBKTNV-1">
          <mxGeometry width="50" height="50" relative="1" as="geometry">
            <mxPoint x="260" y="1080" as="sourcePoint" />
            <mxPoint x="300" y="1080" as="targetPoint" />
          </mxGeometry>
        </mxCell>
        <mxCell id="6unsaEwbxLHlzGFuifC7-69" value="If light is green" style="ellipse;whiteSpace=wrap;html=1;" vertex="1" parent="WIyWlLk6GJQsqaUBKTNV-1">
          <mxGeometry x="300" y="1040" width="100" height="80" as="geometry" />
        </mxCell>
        <mxCell id="6unsaEwbxLHlzGFuifC7-70" value="" style="endArrow=classic;html=1;rounded=0;exitX=0.5;exitY=1;exitDx=0;exitDy=0;" edge="1" parent="WIyWlLk6GJQsqaUBKTNV-1" source="6unsaEwbxLHlzGFuifC7-69">
          <mxGeometry width="50" height="50" relative="1" as="geometry">
            <mxPoint x="310" y="1168" as="sourcePoint" />
            <mxPoint x="350" y="1168" as="targetPoint" />
          </mxGeometry>
        </mxCell>
        <mxCell id="6unsaEwbxLHlzGFuifC7-71" value="Wait until light is green" style="ellipse;whiteSpace=wrap;html=1;" vertex="1" parent="WIyWlLk6GJQsqaUBKTNV-1">
          <mxGeometry x="300" y="1169" width="100" height="80" as="geometry" />
        </mxCell>
        <mxCell id="6unsaEwbxLHlzGFuifC7-72" value="" style="endArrow=classic;html=1;rounded=0;" edge="1" parent="WIyWlLk6GJQsqaUBKTNV-1">
          <mxGeometry width="50" height="50" relative="1" as="geometry">
            <mxPoint x="390" y="1080" as="sourcePoint" />
            <mxPoint x="430" y="1080" as="targetPoint" />
          </mxGeometry>
        </mxCell>
        <mxCell id="6unsaEwbxLHlzGFuifC7-73" value="See if you can turn left" style="ellipse;whiteSpace=wrap;html=1;" vertex="1" parent="WIyWlLk6GJQsqaUBKTNV-1">
          <mxGeometry x="430" y="1040" width="100" height="80" as="geometry" />
        </mxCell>
        <mxCell id="6unsaEwbxLHlzGFuifC7-76" value="" style="edgeStyle=none;orthogonalLoop=1;jettySize=auto;html=1;rounded=0;exitX=0.95;exitY=0.288;exitDx=0;exitDy=0;exitPerimeter=0;entryX=0.29;entryY=0.95;entryDx=0;entryDy=0;entryPerimeter=0;" edge="1" parent="WIyWlLk6GJQsqaUBKTNV-1" source="6unsaEwbxLHlzGFuifC7-71" target="6unsaEwbxLHlzGFuifC7-73">
          <mxGeometry width="80" relative="1" as="geometry">
            <mxPoint x="440" y="1190" as="sourcePoint" />
            <mxPoint x="520" y="1190" as="targetPoint" />
            <Array as="points" />
          </mxGeometry>
        </mxCell>
        <mxCell id="6unsaEwbxLHlzGFuifC7-77" value="" style="endArrow=classic;html=1;rounded=0;" edge="1" parent="WIyWlLk6GJQsqaUBKTNV-1">
          <mxGeometry width="50" height="50" relative="1" as="geometry">
            <mxPoint x="530" y="1080" as="sourcePoint" />
            <mxPoint x="570" y="1080" as="targetPoint" />
          </mxGeometry>
        </mxCell>
        <mxCell id="6unsaEwbxLHlzGFuifC7-78" value="Go" style="ellipse;whiteSpace=wrap;html=1;" vertex="1" parent="WIyWlLk6GJQsqaUBKTNV-1">
          <mxGeometry x="570" y="1040" width="100" height="80" as="geometry" />
        </mxCell>
        <mxCell id="6unsaEwbxLHlzGFuifC7-79" value="" style="edgeStyle=none;orthogonalLoop=1;jettySize=auto;html=1;rounded=0;exitX=0.65;exitY=1.013;exitDx=0;exitDy=0;exitPerimeter=0;entryX=0.05;entryY=0.238;entryDx=0;entryDy=0;entryPerimeter=0;" edge="1" parent="WIyWlLk6GJQsqaUBKTNV-1" source="6unsaEwbxLHlzGFuifC7-73" target="6unsaEwbxLHlzGFuifC7-81">
          <mxGeometry width="80" relative="1" as="geometry">
            <mxPoint x="510" y="1160" as="sourcePoint" />
            <mxPoint x="550" y="1190" as="targetPoint" />
            <Array as="points" />
          </mxGeometry>
        </mxCell>
        <mxCell id="6unsaEwbxLHlzGFuifC7-81" value="Yield until you can go" style="ellipse;whiteSpace=wrap;html=1;" vertex="1" parent="WIyWlLk6GJQsqaUBKTNV-1">
          <mxGeometry x="520" y="1160" width="100" height="80" as="geometry" />
        </mxCell>
        <mxCell id="6unsaEwbxLHlzGFuifC7-82" value="" style="edgeStyle=none;orthogonalLoop=1;jettySize=auto;html=1;rounded=0;exitX=0.5;exitY=0;exitDx=0;exitDy=0;entryX=0.5;entryY=1;entryDx=0;entryDy=0;" edge="1" parent="WIyWlLk6GJQsqaUBKTNV-1" source="6unsaEwbxLHlzGFuifC7-81" target="6unsaEwbxLHlzGFuifC7-78">
          <mxGeometry width="80" relative="1" as="geometry">
            <mxPoint x="620" y="1150" as="sourcePoint" />
            <mxPoint x="700" y="1150" as="targetPoint" />
            <Array as="points" />
          </mxGeometry>
        </mxCell>
        <mxCell id="6unsaEwbxLHlzGFuifC7-83" value="" style="endArrow=classic;html=1;rounded=0;" edge="1" parent="WIyWlLk6GJQsqaUBKTNV-1">
          <mxGeometry width="50" height="50" relative="1" as="geometry">
            <mxPoint x="660" y="1080" as="sourcePoint" />
            <mxPoint x="700" y="1080" as="targetPoint" />
          </mxGeometry>
        </mxCell>
        <mxCell id="6unsaEwbxLHlzGFuifC7-84" value="End" style="ellipse;whiteSpace=wrap;html=1;" vertex="1" parent="WIyWlLk6GJQsqaUBKTNV-1">
          <mxGeometry x="700" y="1040" width="100" height="80" as="geometry" />
        </mxCell>
        <mxCell id="6unsaEwbxLHlzGFuifC7-85" value="No" style="text;strokeColor=none;align=center;fillColor=none;html=1;verticalAlign=middle;whiteSpace=wrap;rounded=0;" vertex="1" parent="WIyWlLk6GJQsqaUBKTNV-1">
          <mxGeometry x="280" y="1130" width="60" height="30" as="geometry" />
        </mxCell>
        <mxCell id="6unsaEwbxLHlzGFuifC7-86" value="No" style="text;strokeColor=none;align=center;fillColor=none;html=1;verticalAlign=middle;whiteSpace=wrap;rounded=0;" vertex="1" parent="WIyWlLk6GJQsqaUBKTNV-1">
          <mxGeometry x="470" y="1150" width="60" height="30" as="geometry" />
        </mxCell>
        <mxCell id="6unsaEwbxLHlzGFuifC7-87" value="Yes" style="text;strokeColor=none;align=center;fillColor=none;html=1;verticalAlign=middle;whiteSpace=wrap;rounded=0;" vertex="1" parent="WIyWlLk6GJQsqaUBKTNV-1">
          <mxGeometry x="383.5" y="1040" width="60" height="30" as="geometry" />
        </mxCell>
        <mxCell id="6unsaEwbxLHlzGFuifC7-88" value="Yes" style="text;strokeColor=none;align=center;fillColor=none;html=1;verticalAlign=middle;whiteSpace=wrap;rounded=0;" vertex="1" parent="WIyWlLk6GJQsqaUBKTNV-1">
          <mxGeometry x="530" y="1040" width="60" height="30" as="geometry" />
        </mxCell>
      </root>
    </mxGraphModel>
  </diagram>
</mxfile>
